<?xml version="1.0" standalone="no"?>
<!DOCTYPE svg PUBLIC "-//W3C//DTD SVG 1.1//EN" "http://www.w3.org/Graphics/SVG/1.1/DTD/svg11.dtd" >
<svg xmlns="http://www.w3.org/2000/svg">
<metadata>
This is a custom SVG webfont generated by Fontspring.
</metadata>
<defs>
<font id="MuseoSlab500Italic" horiz-adv-x="1255" >
<font-face units-per-em="2048" ascent="1536" descent="-512" />
<missing-glyph horiz-adv-x="512" />
<glyph unicode=" "  horiz-adv-x="512" />
<glyph unicode="&#x09;" horiz-adv-x="512" />
<glyph unicode="&#xa0;" horiz-adv-x="512" />
<glyph unicode="!" horiz-adv-x="514" d="M35 0l41 201h205l-39 -201h-207zM125 397l190 1049h207l-219 -1049h-178z" />
<glyph unicode="&#x22;" horiz-adv-x="712" d="M215 1036l84 434h156l-84 -434h-156zM502 1036l86 434h155l-84 -434h-157z" />
<glyph unicode="#" horiz-adv-x="1470" d="M45 391l53 152h264l130 344h-263l56 149h262l151 410h170l-151 -410h317l152 410h170l-152 -410h262l-53 -149h-264l-129 -344h262l-55 -152h-262l-144 -391h-170l144 391h-318l-143 -391h-170l143 391h-262zM532 543h318l129 344h-317z" />
<glyph unicode="$" horiz-adv-x="1112" d="M12 197l121 131q14 -16 41 -40t112 -63t175 -39q123 0 221 65.5t98 166.5q0 72 -60.5 127t-146.5 95t-173 85t-147 123t-60 184q0 164 130 275.5t330 128.5l41 221h146l-41 -223q96 -10 176 -45t110 -66l33 -29l-108 -145q-14 12 -39 30.5t-104 50.5t-160 32 q-131 0 -220.5 -64.5t-89.5 -159.5q0 -72 60.5 -125t147.5 -92t173 -83t146.5 -120.5t60.5 -181.5q0 -168 -132 -290.5t-337 -137.5l-39 -217h-145l41 223q-113 14 -203 59.5t-125 84.5z" />
<glyph unicode="%" horiz-adv-x="1564" d="M20 0l1366 1446h205l-1368 -1446h-203zM197 1133q0 129 108.5 233t245.5 104q123 0 199.5 -75.5t76.5 -194.5q0 -131 -109.5 -233.5t-244.5 -102.5q-125 0 -200.5 74t-75.5 195zM356 1137q0 -53 36 -87t95 -34q70 0 125.5 54t55.5 126q0 55 -36 90t-93 35 q-70 0 -126.5 -55t-56.5 -129zM780 244q0 129 109.5 233.5t247.5 104.5q123 0 199.5 -76t76.5 -195q0 -131 -109.5 -233.5t-246.5 -102.5q-125 0 -201 74t-76 195zM942 248q0 -53 35 -87t94 -34q72 0 126 53t54 127q0 55 -35.5 90t-93.5 35q-70 0 -125 -56t-55 -128z" />
<glyph unicode="&#x26;" horiz-adv-x="1351" d="M59 356q0 139 95.5 260t244.5 162v4q-6 2 -15 7.5t-33.5 25t-44 45t-35 70.5t-15.5 100q0 199 147.5 319.5t352.5 120.5q47 0 96 -7t74 -13l24 -8l-78 -158q-55 14 -112 14q-119 0 -209 -74.5t-90 -199.5q0 -178 225 -178h268l41 201h199l-39 -201h191l-33 -168h-193 l-37 -197q-49 -256 -195.5 -381t-371.5 -125q-213 0 -335 105.5t-122 275.5zM270 375q0 -100 66.5 -159.5t185.5 -59.5q141 0 236.5 83t128.5 250l35 189h-275q-154 0 -265.5 -80t-111.5 -223z" />
<glyph unicode="'" horiz-adv-x="425" d="M215 1036l84 434h160l-86 -434h-158z" />
<glyph unicode="(" horiz-adv-x="653" d="M133 354q0 653 422 1151h182q-428 -530 -428 -1155q0 -281 97 -545h-168q-105 262 -105 549z" />
<glyph unicode=")" horiz-adv-x="657" d="M-61 -195q426 537 426 1156q0 289 -97 544h168q104 -260 105 -549q0 -649 -422 -1151h-180z" />
<glyph unicode="*" horiz-adv-x="989" d="M180 1090l88 167l250 -102l43 291h187l-74 -291l295 102l24 -174l-303 -79v-5l135 -221l-155 -106l-117 243h-4l-205 -241l-133 108l227 230v4z" />
<glyph unicode="+" d="M66 504l28 160h459l98 503h168l-98 -503h457l-31 -160h-457l-98 -504h-168l98 504h-456z" />
<glyph unicode="," horiz-adv-x="546" d="M-117 -254l236 469h209l-281 -469h-164z" />
<glyph unicode="-" horiz-adv-x="976" d="M166 496l33 176h598l-33 -176h-598z" />
<glyph unicode="." horiz-adv-x="528" d="M43 0l41 215h213l-41 -215h-213z" />
<glyph unicode="/" horiz-adv-x="882" d="M-49 -86l833 1610h189l-834 -1610h-188z" />
<glyph unicode="0" horiz-adv-x="1284" d="M123 453q0 119 20.5 248.5t69.5 269t121 249t188.5 180t257.5 70.5q426 0 426 -477q0 -119 -20.5 -249t-69.5 -269t-120.5 -248.5t-188.5 -180.5t-258 -71q-426 1 -426 478zM330 457q0 -299 223 -299q115 0 206 87t140 219t73.5 267t24.5 254q0 303 -223 303 q-111 0 -200 -84t-140 -213t-77.5 -268t-26.5 -266z" />
<glyph unicode="1" horiz-adv-x="983" d="M-8 0l31 168h319l182 926l23 96h-4q-29 -35 -74 -72l-174 -145l-102 135l415 338h183l-250 -1278h315l-35 -168h-829z" />
<glyph unicode="2" horiz-adv-x="1200" d="M6 0q2 129 53.5 237.5t131 184.5t176 143.5t191.5 126t175 115.5t129 129t49 154q0 92 -59 146t-160 54q-55 0 -109.5 -19.5t-94 -47t-70.5 -56t-47 -49.5l-17 -18l-135 108q8 10 22.5 27.5t63.5 64t103.5 80t136.5 62t166 28.5q186 0 300.5 -98t114.5 -262 q0 -115 -60 -216t-151.5 -171t-201 -141.5t-205.5 -129t-169 -132t-89 -152.5h573l39 192h178l-71 -360h-963z" />
<glyph unicode="3" horiz-adv-x="1171" d="M4 168l119 139q6 -6 15 -16t42 -36t68 -45.5t90 -35.5t111 -16q145 0 253.5 94t108.5 229q0 104 -77 161.5t-197 57.5l-91 -4l-26 107l430 428l61 49v4q-45 -6 -73 -6h-389l-37 -184h-179l70 352h883l-29 -141l-471 -463q57 -8 111.5 -28.5t107.5 -58.5t86 -104.5 t33 -152.5q0 -209 -165 -366t-410 -157q-244 0 -416 162z" />
<glyph unicode="4" horiz-adv-x="1234" d="M14 387l25 127l842 932h239l-176 -895h197l-31 -164h-197l-75 -387h-201l76 387h-699zM276 551h469l111 567l31 111h-6q-33 -51 -72 -96l-533 -578v-4z" />
<glyph unicode="5" horiz-adv-x="1163" d="M12 164l119 133q4 -6 13.5 -15.5t39 -33t62.5 -42t85 -33.5t107 -15q152 0 268.5 100t116.5 246q0 115 -76.5 180.5t-201.5 65.5q-66 0 -131.5 -17.5t-98.5 -36.5l-32 -16l-115 45l215 721h745l-69 -352h-178l37 184h-392l-98 -320l-29 -81h4q82 41 199 41 q190 0 311 -113t121 -297q0 -219 -179 -376t-423 -157q-80 0 -153.5 19.5t-119.5 47.5t-81 55.5t-49 45.5z" />
<glyph unicode="6" horiz-adv-x="1234" d="M111 502q0 115 32.5 243.5t102 258t164 232.5t228.5 168.5t286 65.5q176 0 286 -61l-86 -166q-84 47 -204 47q-190 0 -332 -144.5t-207 -346.5h4q57 63 148.5 100t183.5 37q184 0 290.5 -109.5t106.5 -281.5q0 -221 -151.5 -395.5t-391.5 -174.5q-209 0 -334.5 142.5 t-125.5 384.5zM317 479q0 -127 73 -224t192 -97q137 0 231 110.5t94 263.5q0 106 -64.5 170t-185.5 64q-127 0 -233.5 -83t-106.5 -204z" />
<glyph unicode="7" horiz-adv-x="1124" d="M84 0l836 1214q31 43 55 66v4q-37 -6 -84 -6h-498l-37 -184h-178l70 352h991l-27 -139l-907 -1307h-221z" />
<glyph unicode="8" horiz-adv-x="1241" d="M70 356q0 250 323 451q-133 98 -133 244q0 164 139.5 291.5t366.5 127.5q193 0 304.5 -89t111.5 -240q0 -215 -258 -439q160 -106 159 -266q0 -188 -161.5 -324.5t-399.5 -136.5q-203 0 -327.5 104.5t-124.5 276.5zM281 379q0 -104 71.5 -164.5t182.5 -60.5 q131 0 234 76.5t103 199.5q0 43 -19 79t-60 65.5t-77 49t-98.5 49t-93.5 46.5q-243 -154 -243 -340zM463 1053q0 -41 15.5 -74t57.5 -63.5t65.5 -45t94 -49.5t86.5 -43q31 25 68 63t83 119.5t46 155.5q0 82 -58.5 130t-160.5 48q-127 0 -212 -70.5t-85 -170.5z" />
<glyph unicode="9" horiz-adv-x="1236" d="M74 39l84 164q84 -45 200 -45q190 0 333 144t208 347h-4q-57 -61 -148.5 -98t-185.5 -37q-184 0 -290.5 108.5t-106.5 280.5q0 141 64.5 269t191.5 213t287 85q211 0 336.5 -142t125.5 -384q0 -113 -33.5 -242t-102 -258t-164 -233.5t-229.5 -170t-286 -65.5 q-78 0 -147.5 16.5t-100.5 33.5zM371 913q0 -104 64.5 -166.5t183.5 -62.5q127 0 235.5 82t108.5 201q0 127 -73 225t-190 98q-139 0 -234 -110.5t-95 -266.5z" />
<glyph unicode=":" horiz-adv-x="616" d="M84 0l41 215h213l-41 -215h-213zM244 821l41 215h213l-41 -215h-213z" />
<glyph unicode=";" horiz-adv-x="628" d="M-86 -254l227 469h217l-280 -469h-164zM260 821l41 215h209l-43 -215h-207z" />
<glyph unicode="&#x3c;" d="M100 516v135l955 426v-182l-731 -309v-4l731 -310v-182z" />
<glyph unicode="=" d="M131 309v160h977v-160h-977zM131 696v160h977v-160h-977z" />
<glyph unicode="&#x3e;" d="M199 90v182l731 310v4l-731 309v182l954 -426v-135z" />
<glyph unicode="?" horiz-adv-x="968" d="M184 0l39 201h207l-41 -201h-205zM213 1356q18 12 51 32.5t128 53.5t186 33q168 0 274 -89.5t106 -238.5q0 -100 -45 -184t-111.5 -140.5t-135 -105.5t-124 -109.5t-67.5 -126.5l-16 -84h-195l19 97q18 90 72.5 165.5t120 126t127 99.5t103.5 108.5t42 128.5 q0 74 -53.5 120t-143.5 46q-129 -2 -250 -86z" />
<glyph unicode="@" horiz-adv-x="1624" d="M59 373q0 231 125 434t337 323.5t456 120.5q223 0 335.5 -97t112.5 -253q0 -43 -10 -94l-106 -551h147l-31 -150h-534q-174 0 -276.5 95.5t-102.5 236.5q0 176 144.5 307.5t369.5 131.5h213q2 20 2 36q0 74 -77 124t-208 50q-184 0 -345.5 -102t-256 -267t-94.5 -345 q0 -209 129 -340t350 -131l-30 -158q-285 0 -467.5 174t-182.5 455zM715 449q0 -86 53 -139.5t143 -53.5h207l94 483h-202q-119 0 -207 -88.5t-88 -201.5z" />
<glyph unicode="A" horiz-adv-x="1480" d="M-94 0l31 160h139l712 1286h230l209 -1286h141l-33 -160h-493l30 160h154l-49 321h-512l-176 -321h155l-32 -160h-506zM549 645h407l-77 502l-5 110h-6q-14 -51 -45 -110z" />
<glyph unicode="B" horiz-adv-x="1402" d="M-6 0l31 160h180l219 1128h-182l32 158h625q147 0 242 -41q82 -35 128 -108.5t46 -172.5q0 -121 -66.5 -216t-177.5 -144v-4q176 -68 176 -289q0 -143 -75.5 -255t-198.5 -167q-106 -49 -266 -49h-713zM410 168h303q115 0 190 49q61 39 99 107.5t38 148.5q0 94 -55 145.5 t-151 51.5h-326zM541 838h303q111 0 186.5 74.5t75.5 189.5q0 100 -66 143q-47 33 -137 33h-276z" />
<glyph unicode="C" horiz-adv-x="1517" d="M117 606q0 354 260 609t612 255q78 0 162 -13t174 -42t141.5 -88t34.5 -141l-37 -178h-186l20 116q12 61 -43 102.5t-124.5 54.5t-143.5 13q-272 0 -465.5 -203.5t-193.5 -472.5q0 -205 118.5 -334.5t323.5 -129.5q129 0 250 44t137 128l23 110h188l-33 -168 q-18 -102 -121.5 -171.5t-219 -95.5t-232.5 -26q-291 0 -468 175t-177 456z" />
<glyph unicode="D" horiz-adv-x="1599" d="M-8 0l31 160h180l219 1128h-180l30 158h598q186 0 326 -47q332 -127 332 -527q0 -256 -135.5 -478t-356.5 -320q-162 -74 -381 -74h-663zM408 168h235q180 0 318 65q162 84 260 254t98 369q0 289 -215 381q-92 41 -246 41h-233z" />
<glyph unicode="E" horiz-adv-x="1300" d="M-6 0l31 160h180l219 1128h-182l32 158h1047l-66 -336h-178l33 168h-483l-90 -465h512l-35 -168h-510l-94 -477h518l33 174h180l-68 -342h-1079z" />
<glyph unicode="F" horiz-adv-x="1191" d="M-6 0l31 160h180l219 1128h-182l32 158h1002l-68 -342h-178l33 166h-438l-93 -479h500l-35 -168h-499l-88 -463h194l-31 -160h-579z" />
<glyph unicode="G" horiz-adv-x="1576" d="M115 604q0 354 259 610t627 256q123 0 246 -27.5t212 -95t71 -161.5l-35 -178h-188l20 106q12 61 -43 104.5t-130 59.5t-155 16q-285 0 -478 -205.5t-193 -474.5q0 -207 122.5 -333.5t346.5 -126.5q135 0 264 44t147 136l39 190h-284l32 160h471l-80 -405 q-20 -106 -126.5 -178t-229.5 -99t-250 -27q-303 0 -484 173t-181 456z" />
<glyph unicode="H" horiz-adv-x="1740" d="M-8 0l31 160h180l219 1128h-180l30 158h568l-31 -158h-180l-94 -481h747l94 481h-182l31 158h569l-31 -158h-182l-221 -1128h182l-31 -160h-569l31 160h182l94 479h-747l-94 -479h182l-31 -160h-567z" />
<glyph unicode="I" horiz-adv-x="786" d="M-8 0l31 160h180l219 1128h-180l30 158h568l-31 -158h-182l-219 -1128h182l-31 -160h-567z" />
<glyph unicode="J" horiz-adv-x="1132" d="M0 317l27 170h196q-23 -82 -22 -145q0 -184 178 -184q94 0 170 61.5t100 194.5l170 874h-213l31 158h577l-30 -158h-160l-172 -889q-29 -145 -105.5 -243.5t-171 -139.5t-200.5 -41q-158 0 -266.5 87t-108.5 255z" />
<glyph unicode="K" horiz-adv-x="1419" d="M-8 0l31 160h180l219 1128h-180l30 158h545l-31 -158h-159l-88 -454h176l403 454h-123l31 158h487l-30 -158h-140l-477 -530v-4q33 -20 58 -88l161 -416q18 -51 41 -72.5t76 -21.5l62 4l-31 -160q-33 -4 -98 -4q-113 0 -165 49t-87 143l-152 410q-23 68 -104 68h-121 l-98 -506h178l-33 -160h-561z" />
<glyph unicode="L" horiz-adv-x="1234" d="M-4 0l31 160h178l219 1118h-182l32 168h570l-33 -168h-182l-217 -1110h503l48 233h178l-80 -401h-1065z" />
<glyph unicode="M" horiz-adv-x="1961" d="M-37 0l31 160h178l307 1128h-182l31 158h403l199 -881l12 -104h4q20 45 53 104l543 881h416l-33 -158h-180l-133 -1128h180l-33 -160h-551l31 160h174l103 864l28 119h-6q-29 -70 -55 -111l-477 -760h-183l-184 760l-10 111h-4q-8 -74 -19 -119l-235 -864h174l-31 -160 h-551z" />
<glyph unicode="N" horiz-adv-x="1720" d="M-6 0l31 160h180l219 1128h-182l32 158h377l510 -1047q18 -39 29 -100h6q4 68 14 113l172 876h-184l31 158h571l-31 -158h-182l-252 -1288h-196l-512 1047q-18 41 -29 100h-6q-4 -68 -14 -113l-168 -874h184l-31 -160h-569z" />
<glyph unicode="O" horiz-adv-x="1687" d="M115 606q0 229 123.5 430t325.5 317.5t427 116.5q281 0 455 -172t174 -442q0 -233 -125 -438t-326.5 -324t-425.5 -119q-279 0 -453.5 177.5t-174.5 453.5zM322 614q0 -201 121.5 -328.5t314.5 -127.5q250 0 451.5 204.5t201.5 483.5q0 195 -122 319.5t-314 124.5 q-252 0 -452.5 -201t-200.5 -475z" />
<glyph unicode="P" horiz-adv-x="1347" d="M-8 0l31 160h182l219 1128h-182l32 158h658q135 0 215 -31q98 -37 156.5 -127t58.5 -219q0 -158 -86 -292t-227 -193q-98 -41 -242 -41h-324l-73 -383h182l-31 -160h-569zM516 711h285q94 0 166 32q84 39 135 124t51 190q0 143 -96 192q-57 29 -152 29h-278z" />
<glyph unicode="Q" horiz-adv-x="1685" d="M115 606q0 229 122.5 430t322.5 317.5t419 116.5q287 0 465 -172t178 -442q0 -346 -268 -614l133 -160l-131 -119l-133 170q-209 -158 -465 -158q-289 0 -466 177.5t-177 453.5zM324 614q0 -201 121.5 -328.5t314.5 -127.5q180 0 344 114l-176 217l129 117l172 -215 q184 199 184 455q0 195 -122 319.5t-314 124.5q-254 0 -453.5 -201t-199.5 -475z" />
<glyph unicode="R" horiz-adv-x="1441" d="M-8 0l31 160h182l219 1128h-182l32 158h637q170 0 258 -45q170 -88 170 -305q0 -166 -103 -300t-275 -171v-7q33 -39 49 -77l112 -291q14 -35 24.5 -51.5t33 -29.5t59.5 -13l59 4l-30 -160q-33 -4 -97 -4q-111 0 -162 49t-87 143l-117 314q-18 49 -46 65.5t-83 16.5h-182 l-84 -424h176l-31 -160h-563zM524 752h285q131 0 226 89t95 228q0 121 -77 170q-57 39 -185 39h-241z" />
<glyph unicode="S" horiz-adv-x="1204" d="M59 297l29 143h188l-22 -112q-16 -88 65.5 -129t204.5 -41q143 0 234.5 73.5t91.5 190.5q0 70 -47 121t-117 78.5t-152.5 62.5t-152.5 73t-117 111.5t-47 173.5q0 201 161 314.5t390 113.5q96 0 188.5 -22.5t160 -83.5t48.5 -147l-32 -156h-189l19 100q10 45 -26 76 t-87 42t-109 11q-133 0 -223 -64.5t-90 -170.5q0 -78 65.5 -130.5t158.5 -86t185.5 -73.5t158 -123t65.5 -208q0 -209 -164 -334t-399 -125q-76 0 -154 16.5t-150.5 51.5t-111.5 101.5t-23 152.5z" />
<glyph unicode="T" horiz-adv-x="1363" d="M143 1053l78 393h1241l-78 -393h-178l43 225h-338l-219 -1118h182l-30 -160h-568l31 160h180l220 1118h-340l-43 -225h-181z" />
<glyph unicode="U" horiz-adv-x="1640" d="M197 1288l30 158h568l-31 -158h-182l-140 -719q-18 -106 -18 -147q0 -123 81 -193.5t226 -70.5q170 0 285 92q117 98 147 268l152 770h-182l30 158h570l-31 -158h-182l-154 -786q-57 -281 -258 -420q-160 -106 -383 -107q-225 0 -366.5 114t-141.5 310q0 49 21 172 l139 717h-180z" />
<glyph unicode="V" horiz-adv-x="1458" d="M156 1288l30 158h508l-30 -158h-160l139 -952q4 -31 4 -65q0 -23 -2 -48h6q20 61 45 113l510 952h-159l32 158h520l-30 -158h-142l-708 -1288h-217l-207 1288h-139z" />
<glyph unicode="W" horiz-adv-x="2064" d="M164 1288l31 158h507l-30 -158h-172l41 -948l-6 -109h8q16 57 41 109l518 1106h174l86 -1106v-109h6q16 57 37 109l410 948h-173l31 158h522l-30 -158h-140l-575 -1288h-233l-82 1026q-1 17 -2 36q0 37 6 79h-9q-16 -63 -40 -115l-482 -1026h-233l-72 1288h-139z" />
<glyph unicode="X" horiz-adv-x="1372" d="M-57 0l30 160h136l487 581l-252 547h-139l31 158h493l-31 -158h-153l168 -383l24 -57h4q16 25 45 57l306 383h-146l33 158h494l-31 -158h-135l-490 -586l254 -542h141l-32 -160h-492l31 160h151l-168 377l-26 61h-4q-20 -31 -47 -61l-301 -377h147l-33 -160h-495z" />
<glyph unicode="Y" horiz-adv-x="1335" d="M154 1288l30 158h490l-31 -158h-151l178 -454l18 -62h4q18 31 41 62l359 454h-150l31 158h502l-31 -158h-137l-537 -676l-88 -452h180l-31 -160h-567l31 160h182l88 452l-274 676h-137z" />
<glyph unicode="Z" horiz-adv-x="1300" d="M-2 0l27 135l940 1075l73 70v4q-41 -6 -82 -6h-524l-43 -225h-180l78 393h1042l-26 -133l-945 -1077l-73 -70v-4q41 6 82 6h555l47 233h178l-80 -401h-1069z" />
<glyph unicode="[" horiz-adv-x="647" d="M45 -195l332 1700h338l-29 -149h-166l-270 -1399h166l-31 -152h-340z" />
<glyph unicode="\" horiz-adv-x="864" d="M266 1524h168l207 -1610h-168z" />
<glyph unicode="]" horiz-adv-x="647" d="M-51 -195l28 152h164l271 1399h-164l31 149h339l-331 -1700h-338z" />
<glyph unicode="^" d="M20 506l410 940h129l410 -940h-181l-294 721l-293 -721h-181z" />
<glyph unicode="_" horiz-adv-x="1142" d="M-129 -160l31 160h1099l-28 -160h-1102z" />
<glyph unicode="`" horiz-adv-x="1021" d="M211 1806h221l160 -260h-178z" />
<glyph unicode="a" horiz-adv-x="1140" d="M0 238q0 115 67.5 198.5t178 124.5t221.5 58.5t229 17.5h52q14 70 14 102q0 158 -189 158q-72 0 -149.5 -24.5t-118.5 -49.5l-41 -24l-51 153q20 12 55 30.5t138.5 48.5t201.5 30q156 0 254.5 -73t98.5 -224q0 -63 -47.5 -273t-47.5 -251q0 -90 95 -90l47 4l-29 -154 q-37 -4 -94 -4q-211 0 -213 188h-4q2 0 -14.5 -21.5t-48.5 -52t-74 -61.5t-103 -52.5t-127 -21.5q-129 0 -215 69t-86 194zM199 270q0 -63 41 -102t120 -39q119 0 219.5 106.5t133.5 231.5l10 41h-53q-55 0 -106.5 -3t-121 -17.5t-121 -39t-87 -71t-35.5 -107.5z" />
<glyph unicode="b" horiz-adv-x="1253" d="M59 0l250 1292h-174l31 154h371l-91 -469l-26 -94h4q55 80 149.5 129t196.5 49q182 0 284.5 -115t102.5 -311q0 -285 -171 -472.5t-394 -187.5q-109 0 -194 48.5t-122 140.5h-4q-2 -39 -10 -84l-16 -80h-187zM340 410q0 -115 58.5 -189t174.5 -74q143 0 262 131.5 t119 342.5q0 125 -62.5 195.5t-170.5 70.5q-158 0 -269.5 -143.5t-111.5 -333.5z" />
<glyph unicode="c" horiz-adv-x="1140" d="M57 430q0 254 193.5 442.5t466.5 188.5q86 0 170 -20.5t146.5 -79t47.5 -144.5l-24 -119h-176l14 70q10 57 -52.5 89t-146.5 32q-170 0 -303 -133t-133 -312q0 -135 83 -216t226 -81q92 0 180.5 34t131.5 69l43 33l57 -154q-6 -6 -18.5 -16.5t-54.5 -37t-88 -47 t-119.5 -37t-149.5 -16.5q-225 0 -359.5 125t-134.5 330z" />
<glyph unicode="d" horiz-adv-x="1310" d="M61 399q0 287 170 474.5t402 187.5q104 0 186 -44t115 -134h4q2 39 10 75l64 334h-172l30 154h371l-221 -1143q-8 -45 -8 -63q0 -90 94 -90l47 4l-29 -154q-45 -4 -86 -4q-106 0 -163.5 44t-55.5 142h-4q-55 -88 -154.5 -147.5t-209.5 -59.5q-184 0 -287 113.5 t-103 310.5zM264 414q0 -125 62.5 -196t171.5 -71q158 0 268.5 146.5t110.5 331.5q0 115 -58.5 188.5t-173.5 73.5q-145 0 -263 -131t-118 -342z" />
<glyph unicode="e" horiz-adv-x="1138" d="M61 418q0 262 174.5 452.5t430.5 190.5q193 0 293 -104.5t100 -278.5l-33 -178h-754q-8 -35 -8 -74q0 -123 78 -201t217 -78q80 0 163 30t126 61l43 28l55 -155q-20 -14 -55 -37t-139.5 -61t-202.5 -38q-223 0 -355.5 123t-132.5 320zM301 627h553q6 35 6 67 q0 102 -54 155.5t-147 53.5q-117 0 -214 -73.5t-144 -202.5z" />
<glyph unicode="f" horiz-adv-x="718" d="M115 883l30 153h170l11 45q18 96 61 169t91 112t108.5 62.5t103.5 29.5t88 6l90 -6l-34 -162q-25 4 -60 4q-203 0 -248 -211l-10 -49h250l-29 -153h-250l-172 -883h-198l170 883h-172z" />
<glyph unicode="g" horiz-adv-x="1284" d="M4 -338l84 143q113 -68 277 -67q332 0 391 328l30 116h-4q-121 -170 -319 -170q-186 0 -290.5 116t-104.5 304q0 150 61 291t189 239.5t296 98.5q131 0 216 -51.5t104 -122.5h4q-2 14 4 43q20 106 137 106h224l-29 -153h-115q-43 0 -53 -41l-156 -809 q-33 -162 -125 -270.5t-204.5 -150.5t-243.5 -42q-207 0 -373 92zM270 446q0 -121 62.5 -191.5t177.5 -70.5t199 79t121.5 185.5t37.5 217.5q0 223 -237 223q-164 0 -262.5 -133.5t-98.5 -309.5z" />
<glyph unicode="h" horiz-adv-x="1316" d="M59 0l250 1292h-166l29 154h367l-103 -535l-26 -92h4q37 72 153.5 157t272.5 85q137 0 213.5 -70.5t76.5 -202.5q0 -70 -45 -292t-45 -256q0 -53 23.5 -71.5t69.5 -18.5l49 4l-31 -154q-39 -4 -88 -4q-227 0 -227 194q0 49 44 268.5t44 270.5q0 150 -154 150 q-152 0 -270.5 -121t-151.5 -293l-92 -465h-197z" />
<glyph unicode="i" horiz-adv-x="653" d="M104 883l31 153h371l-144 -733q-8 -45 -8 -63q0 -90 95 -90l47 4l-29 -154q-47 -4 -82 -4q-47 0 -82 6t-72.5 24.5t-59 60.5t-21.5 108q0 33 10 90l119 598h-175zM342 1243l41 203h209l-41 -203h-209z" />
<glyph unicode="j" horiz-adv-x="610" d="M-231 -418l32 160q16 -2 45 -2q35 0 69 8t76 28.5t73.5 70t46.5 120.5l176 916h-174l30 153h373l-207 -1061q-23 -123 -78 -207.5t-125.5 -122.5t-128 -52.5t-114.5 -14.5zM352 1243l39 203h209l-39 -203h-209z" />
<glyph unicode="k" horiz-adv-x="1144" d="M57 0l252 1292h-172l29 154h373l-158 -809h131l264 246h-129l29 153h463l-31 -153h-121l-334 -312v-4q29 -23 56 -82l112 -247q18 -43 42 -64.5t73 -21.5l57 2l-28 -154q-29 -4 -91 -4q-59 0 -99 12t-67.5 44t-40 53.5t-34.5 74.5l-115 256q-23 49 -84 49h-82l-98 -485 h-197z" />
<glyph unicode="l" horiz-adv-x="604" d="M100 201q0 37 11 94l194 997h-174l31 154h370l-217 -1133q-10 -41 -10 -69q0 -51 23.5 -68.5t70.5 -17.5l50 4l-33 -164q-41 -4 -82 -4q-234 0 -234 207z" />
<glyph unicode="m" horiz-adv-x="2019" d="M115 883l30 153h234q113 0 113 -86q0 -61 -31 -141h4q45 86 162.5 169t249.5 83q244 0 260 -252h4q61 111 171.5 181.5t235.5 70.5q133 0 209 -71.5t76 -203.5q0 -66 -45 -289t-45 -257q0 -53 23.5 -71.5t68.5 -18.5l49 4l-31 -154q-39 -4 -88 -4q-227 0 -227 194 q0 47 44 269.5t44 271.5q0 74 -33.5 112t-117.5 38q-137 0 -242 -124t-135 -284l-92 -473h-199l121 621q14 96 14 116q0 143 -147 144q-141 0 -249 -126t-140 -292l-91 -463h-198l164 840q6 43 -37 43h-129z" />
<glyph unicode="n" horiz-adv-x="1376" d="M115 883l30 153h236q111 0 111 -88q0 -66 -31 -139h4q37 76 154.5 164t283.5 88q135 0 211 -70.5t76 -202.5q0 -70 -45 -292t-45 -256q0 -53 23.5 -71.5t68.5 -18.5l49 4l-31 -154q-41 -4 -88 -4q-227 0 -227 194q0 49 44 268.5t44 270.5q0 150 -156 150 q-150 0 -269.5 -122t-151.5 -292l-91 -465h-198l164 838q1 6 0 10q0 34 -37 35h-129z" />
<glyph unicode="o" horiz-adv-x="1284" d="M59 432q0 262 197 445.5t457 183.5q211 0 344 -126t133 -327q0 -264 -197.5 -448.5t-455.5 -184.5q-211 0 -344.5 127t-133.5 330zM262 440q0 -131 81 -212t210 -81q166 0 300 132.5t134 318.5q0 129 -81 210t-210 81q-168 0 -301 -131.5t-133 -317.5z" />
<glyph unicode="p" horiz-adv-x="1314" d="M37 -410l242 1248q1 6 0 11q0 34 -35 34h-129l30 153h232q106 0 106 -80q0 -23 -20 -94h4q57 88 151.5 143.5t210.5 55.5q182 0 285 -115t103 -311q0 -285 -170 -472.5t-394 -187.5q-106 0 -188 46.5t-121 134.5h-4q-2 -43 -12 -97l-92 -469h-199zM401 414 q0 -117 58.5 -192t173.5 -75q145 0 263 131.5t118 342.5q0 125 -61.5 195.5t-172.5 70.5q-156 0 -267.5 -144.5t-111.5 -328.5z" />
<glyph unicode="q" d="M61 397q0 289 170 476.5t402 187.5q238 0 311 -184h4q0 29 8 71l17 88h188l-252 -1296h174l-30 -150h-373l94 473l27 97h-4q-51 -78 -140.5 -131.5t-205.5 -53.5q-184 0 -287 113.5t-103 308.5zM264 414q0 -125 62.5 -196t171.5 -71q158 0 269.5 146.5t111.5 331.5 q0 115 -58.5 188.5t-173.5 73.5q-145 0 -264 -131t-119 -342z" />
<glyph unicode="r" horiz-adv-x="837" d="M113 883l32 153h234q111 0 110 -88q0 -66 -36 -176h4q55 119 155.5 198t216.5 79q37 0 62 -5l-39 -196q-31 6 -55 6q-137 0 -255 -141.5t-153 -327.5l-74 -385h-198l162 838q1 7 1 12q0 32 -38 33h-129z" />
<glyph unicode="s" horiz-adv-x="995" d="M10 231l19 103h174l-13 -68q-10 -51 32 -82.5t90 -39t102 -7.5q100 0 167.5 41t67.5 111q0 53 -51 91t-124 64.5t-146.5 58.5t-124.5 92t-51 148q0 150 130 234t310 84q143 0 242.5 -57.5t78.5 -163.5l-22 -113h-174l14 74q10 55 -43 77.5t-125 22.5q-88 0 -151.5 -38 t-63.5 -105q0 -53 51.5 -91t125 -62.5t146 -55.5t124 -89.5t51.5 -144.5q0 -152 -127 -246t-334 -94q-158 0 -279 64.5t-96 191.5z" />
<glyph unicode="t" horiz-adv-x="731" d="M86 883l31 153h178l55 285h193l-56 -285h250l-30 -153h-250l-92 -484q-8 -39 -9 -80q0 -164 172 -163l58 4l-33 -164q-33 -4 -66 -4q-334 0 -333 303q0 45 12 104l94 484h-174z" />
<glyph unicode="u" horiz-adv-x="1363" d="M90 883l31 153h371l-119 -616q-16 -70 -17 -119q0 -145 156 -145q147 0 265 126t147 283l61 318h-172l31 153h370l-143 -733q-6 -33 -6 -63q0 -90 92 -90l49 4l-30 -154q-45 -4 -95 -4q-109 0 -162 56q-46 47 -46 136q0 17 1 35h-4q-63 -98 -171.5 -173t-256.5 -75 q-127 0 -208.5 68t-81.5 205q0 66 14 131l96 504h-172z" />
<glyph unicode="v" horiz-adv-x="1193" d="M74 883l28 153h459l-31 -153h-133l103 -604l4 -97h6q16 51 41 97l338 604h-133l30 153h469l-28 -153h-131l-506 -883h-223l-162 883h-131z" />
<glyph unicode="w" horiz-adv-x="1761" d="M76 883l30 153h457l-28 -153h-142l60 -602l-2 -97h6q14 53 32 97l377 753h183l77 -753l-2 -97h6q14 53 35 97l295 602h-139l29 153h471l-31 -153h-129l-438 -883h-224l-81 692v99h-7q-14 -51 -37 -99l-352 -692h-221l-96 883h-129z" />
<glyph unicode="x" horiz-adv-x="1153" d="M-41 0l29 154h143l326 385l-138 307q-18 37 -59 37h-123l31 153h192q45 0 67 -15t40 -58l96 -232l23 -63h4q18 33 47 65l244 303h274l-29 -153h-147l-309 -361l131 -284q14 -31 26.5 -46.5t36 -27.5t60.5 -12l69 2l-30 -154q-29 -4 -89 -4q-61 0 -102 12t-68.5 44 t-40 54.5t-34.5 73.5l-62 154l-24 63h-4q-18 -31 -45 -65l-265 -332h-270z" />
<glyph unicode="y" horiz-adv-x="1212" d="M-123 -362l92 143q49 -45 137 -45q129 0 220 143l61 103l-186 901h-131l30 153h465l-28 -153h-138l111 -617q4 -20 4 -42.5t-2 -35.5v-12h6q16 45 43 90l348 617h-133l31 153h465l-31 -153h-127l-616 -1047q-156 -266 -396 -266q-143 0 -225 68z" />
<glyph unicode="z" horiz-adv-x="1085" d="M-23 0l25 131l678 672l86 80v4q-41 -4 -98 -4h-324l-31 -166h-174l64 319h846l-27 -131l-676 -672q-20 -20 -41.5 -39.5t-34 -30.5t-12.5 -9v-4q43 4 100 4h367l33 165h172l-62 -319h-891z" />
<glyph unicode="{" horiz-adv-x="698" d="M66 578l34 176q6 0 18.5 2t45.5 16t60.5 36.5t54 68t38.5 104.5l37 184q67 344 399 344q22 0 46 -2l-29 -151q-29 2 -60.5 -4t-70.5 -24.5t-70.5 -67t-46.5 -119.5l-43 -226q-35 -170 -184 -235l-33 -12v-4l12 -7q8 -4 30 -21.5t37 -40t28.5 -60t13.5 -82.5q0 -27 -6 -60 l-43 -219q-8 -53 -8 -76q0 -49 18 -80.5t48 -45t54.5 -16.5t51.5 -1l-29 -152q-20 -4 -49 -4q-27 0 -55.5 5.5t-69.5 21.5t-71.5 44t-52 78t-21.5 118q0 39 10 104l35 184q6 35 6 60q0 68 -34 108.5t-69 46.5z" />
<glyph unicode="|" horiz-adv-x="679" d="M258 -326v1948h176v-1948h-176z" />
<glyph unicode="}" horiz-adv-x="698" d="M-84 -199l29 154q29 -4 61.5 2t71.5 25.5t69.5 67.5t45.5 120l47 244q12 59 38.5 107t56.5 74t57.5 43t45.5 24l19 6v4q-14 6 -34 18t-53.5 64.5t-33.5 122.5q0 29 6 61l39 203q8 35 8 71q0 49 -18.5 81t-48 45.5t-54 16.5t-51.5 1l31 151q45 6 95 -2t103.5 -33.5t87 -84 t33.5 -142.5q0 -49 -12 -104l-31 -164q-6 -35 -6 -59q0 -129 115 -160l22 -4l-34 -176q-6 0 -18.5 -2.5t-45.5 -16.5t-60.5 -36.5t-55 -67.5t-40.5 -105l-39 -205q-73 -375 -446 -344z" />
<glyph unicode="~" horiz-adv-x="1226" d="M121 418q0 174 75.5 260t211.5 86q72 0 130 -32t88.5 -68.5t77 -68.5t97.5 -32q72 0 103.5 57.5t31.5 135.5h162q0 -346 -285 -346q-72 0 -130 30.5t-89 68.5t-77 68.5t-97 30.5q-72 0 -103.5 -57t-31.5 -133h-164z" />
<glyph unicode="&#xa1;" horiz-adv-x="501" d="M-51 -410l219 1049h178l-190 -1049h-207zM188 836l41 200h207l-41 -200h-207z" />
<glyph unicode="&#xa2;" horiz-adv-x="1157" d="M102 602q0 262 162 469t398 227l32 172h146l-35 -180q78 -14 138.5 -51t92 -80t53 -84t27.5 -67l6 -27l-180 -68q-2 8 -5 21.5t-19.5 48.5t-39 61.5t-68.5 48t-105 21.5q-170 0 -284 -149.5t-114 -358.5q0 -125 62.5 -198.5t183.5 -73.5q90 0 170 50t113 99l34 49 l170 -71q-6 -12 -17 -31.5t-53 -72t-91.5 -93.5t-129 -77.5t-167.5 -43.5l-33 -170h-146l35 181q-156 31 -246 148.5t-90 299.5z" />
<glyph unicode="&#xa3;" horiz-adv-x="1261" d="M-23 0l31 164h176l97 489h-144l29 144h139l60 293q31 164 169 272t320 108q197 0 328 -124l12 -15l-131 -125q-8 8 -25.5 22.5t-74 37t-113.5 22.5q-111 0 -189.5 -63.5t-95.5 -157.5l-53 -270h369l-29 -144h-367l-96 -489h518l47 237h179l-78 -401h-1078z" />
<glyph unicode="&#xa5;" horiz-adv-x="1298" d="M168 408l22 129h334l17 75l-37 99h-279l25 129h211l-219 606h219l155 -451l54 -209h4q61 111 125 207l327 453h242l-457 -606h209l-24 -129h-279l-72 -99l-16 -75h332l-25 -129h-329l-82 -408h-205l82 408h-334z" />
<glyph unicode="&#xa7;" horiz-adv-x="886" d="M-27 -16l111 120q68 -63 184 -63q125 0 196 80t68 207l15 788h158l-13 -788v-13q0 -184 -111 -311q-116 -131 -315 -131q-170 0 -286 104zM207 227l12 789v13q0 184 111 310q115 131 313 131q172 0 287 -104l8 -6l-111 -119q-68 63 -184 64q-125 0 -195.5 -81t-68.5 -208 l-14 -789h-158z" />
<glyph unicode="&#xa8;" horiz-adv-x="1021" d="M88 1599l41 207h178l-43 -207h-176zM498 1599l43 207h176l-43 -207h-176z" />
<glyph unicode="&#xa9;" horiz-adv-x="1669" d="M125 723q0 311 213 529t514 218q307 0 521 -218t214 -529t-214 -529.5t-521 -218.5q-301 0 -514 218.5t-213 529.5zM276 723q0 -256 166 -432t410 -176q248 0 417 176t169 432t-169 432t-417 176q-244 0 -410 -176t-166 -432zM465 721q0 168 111.5 288.5t291.5 120.5 q195 0 312 -165l22 -37l-125 -68q-8 14 -23.5 36t-68.5 57.5t-113 35.5q-115 0 -184.5 -79t-69.5 -189q0 -115 68 -191.5t186 -76.5q121 0 197 116l8 13l125 -68q-4 -8 -12 -21.5t-38 -49t-65.5 -62.5t-94 -48.5t-124.5 -21.5q-182 0 -292.5 120t-110.5 290z" />
<glyph unicode="&#xaa;" horiz-adv-x="874" d="M139 543l23 116h563l-23 -116h-563zM221 956q0 246 422 246h33q4 20 4 25q2 16 2 29q0 92 -109 92q-41 0 -86 -14.5t-69 -26.5l-27 -15l-43 105q106 70 258 69q225 0 225 -198q0 -31 -10 -76l-78 -395h-139l21 98h-4q-8 -12 -24.5 -30.5t-71 -50.5t-111.5 -32 q-76 0 -134.5 46t-58.5 128zM373 973q0 -74 90 -74q68 0 124 64.5t68 142.5h-22q-260 0 -260 -133z" />
<glyph unicode="&#xab;" horiz-adv-x="1153" d="M82 582l391 417h209l-410 -430l260 -411h-188zM489 582l424 417h211l-444 -430l260 -411h-188z" />
<glyph unicode="&#xac;" horiz-adv-x="1294" d="M145 696v160h977v-547h-166v387h-811z" />
<glyph unicode="&#xad;" horiz-adv-x="976" d="M166 496l33 176h598l-33 -176h-598z" />
<glyph unicode="&#xae;" horiz-adv-x="1669" d="M125 723q0 311 213 529t514 218q307 0 521 -218t214 -529t-214 -529.5t-521 -218.5q-301 0 -514 218.5t-213 529.5zM276 723q0 -256 166 -432t410 -176q248 0 417 176t169 432t-169 432t-417 176q-244 0 -410 -176t-166 -432zM602 340v772h299q109 0 175.5 -64.5 t66.5 -170.5q0 -82 -43 -136.5t-99 -68.5v-4q8 -8 27 -43l150 -285h-160l-144 299h-126v-299h-146zM748 745h122q59 0 92 35t33 97q0 59 -32.5 91.5t-90.5 32.5h-124v-256z" />
<glyph unicode="&#xaf;" horiz-adv-x="1021" d="M129 1606l27 145h520l-27 -145h-520z" />
<glyph unicode="&#xb0;" horiz-adv-x="806" d="M193 1130q0 133 108.5 236.5t241.5 103.5q123 0 201.5 -75.5t78.5 -190.5q0 -135 -109.5 -237.5t-240.5 -102.5q-123 0 -201.5 74.5t-78.5 191.5zM352 1139q0 -55 36 -89t95 -34q70 0 125.5 53t55.5 125q0 55 -36 91t-93 36q-72 0 -127.5 -55t-55.5 -127z" />
<glyph unicode="&#xb1;" d="M82 504v160h459v503h168v-503h456v-160h-456v-504h-168v504h-459zM115 -195h1018v-159h-1018v159z" />
<glyph unicode="&#xb2;" horiz-adv-x="776" d="M131 866q2 100 44 181t103.5 129.5t133 94.5t132 78.5t101.5 80t41 102.5q0 47 -34 77.5t-87 30.5q-47 0 -95 -24.5t-73 -48.5l-26 -25l-90 100q14 16 38.5 39t102.5 62t153 39q119 0 195 -64.5t76 -171.5q0 -88 -49 -158.5t-122 -115.5t-147.5 -85t-136 -89t-78.5 -105 h326l20 105h129l-45 -232h-612z" />
<glyph unicode="&#xb3;" horiz-adv-x="770" d="M135 981l101 100q8 -10 23 -25.5t68.5 -42t112.5 -26.5q78 0 136.5 53.5t58.5 128.5q0 55 -46 87t-110 32h-63l-21 74l240 235l53 41v7q-29 -6 -61 -7h-201l-20 -108h-130l46 231h569l-19 -98l-276 -266q76 -16 135.5 -72.5t59.5 -153.5q0 -127 -101.5 -226t-249.5 -99 q-92 0 -167.5 33.5t-106.5 66.5z" />
<glyph unicode="&#xb4;" horiz-adv-x="1021" d="M152 1546l262 260h237l-303 -260h-196z" />
<glyph unicode="&#xb5;" horiz-adv-x="1228" d="M-47 -410l280 1446h199l-119 -610q-14 -63 -14 -119q0 -147 158 -147q147 0 265 123t148 282l93 471h198l-203 -1036h-192l22 121l27 98h-4q-53 -92 -164.5 -168t-255.5 -76q-123 0 -184 68h-4q-6 -104 -19 -164l-55 -289h-176z" />
<glyph unicode="&#x3bc;" horiz-adv-x="1228" d="M-47 -410l280 1446h199l-119 -610q-14 -63 -14 -119q0 -147 158 -147q147 0 265 123t148 282l93 471h198l-203 -1036h-192l22 121l27 98h-4q-53 -92 -164.5 -168t-255.5 -76q-123 0 -184 68h-4q-6 -104 -19 -164l-55 -289h-176z" />
<glyph unicode="&#xb6;" horiz-adv-x="1230" d="M139 909q0 215 173 376t386 161h582l-33 -176h-403l-266 -1372h-154l117 596q-162 0 -282 119.5t-120 295.5zM705 -102l243 1255h152l-242 -1255h-153z" />
<glyph unicode="&#xb7;" horiz-adv-x="573" d="M158 485l41 215h207l-41 -215h-207z" />
<glyph unicode="&#xb8;" horiz-adv-x="1021" d="M170 -430l23 108q35 -12 86 -12q121 0 120 76q0 59 -108 59h-35l113 246l96 -20l-2 -17l-55 -125q59 -6 98 -43t39 -96q0 -94 -80 -142t-180 -48q-29 0 -57.5 3t-43.5 7z" />
<glyph unicode="&#xb9;" horiz-adv-x="688" d="M129 866l25 127h211l96 496l18 74h-4q-20 -29 -51 -52l-100 -81l-76 102l282 229h138l-150 -768h209l-25 -127h-573z" />
<glyph unicode="&#xba;" horiz-adv-x="968" d="M152 543l22 116h639l-22 -116h-639zM227 1071q0 164 124 280.5t284 116.5q135 0 219 -79.5t84 -206.5q0 -164 -126 -280t-284 -116q-135 0 -218 79t-83 206zM377 1083q0 -74 45 -118.5t119 -44.5q94 0 170.5 73.5t76.5 180.5q0 72 -47 117.5t-118 45.5q-94 0 -170 -75 t-76 -179z" />
<glyph unicode="&#xbb;" horiz-adv-x="1155" d="M16 158l447 430l-262 411h188l264 -424l-426 -417h-211zM459 158l411 430l-262 411h189l264 -424l-393 -417h-209z" />
<glyph unicode="&#xbc;" horiz-adv-x="1970" d="M102 551l25 127h211l96 496l19 73h-4q-20 -29 -52 -51l-100 -82l-76 103l283 229h137l-149 -768h208l-24 -127h-574zM430 0l969 1446h162l-967 -1446h-164zM1118 223l19 99l520 573h168l-107 -551h125l-22 -121h-127l-43 -223h-152l43 223h-424zM1300 344h267l57 299 l27 92h-6q-27 -45 -60 -80l-285 -307v-4z" />
<glyph unicode="&#xbd;" horiz-adv-x="1937" d="M90 551l25 127h211l96 496l18 73h-4q-20 -29 -51 -51l-100 -82l-76 103l283 229h137l-150 -768h209l-24 -127h-574zM420 0l969 1446h161l-966 -1446h-164zM1120 0q2 100 44 181t103.5 129t133.5 94.5t132 79t101 79.5t41 103q0 47 -33.5 77.5t-87.5 30.5q-47 0 -95 -24.5 t-75 -49.5l-24 -24l-90 100q14 16 38.5 39t102.5 61.5t154 38.5q119 0 194.5 -64.5t75.5 -170.5q0 -88 -49 -158.5t-122 -116t-147.5 -85t-136 -89t-77.5 -104.5h325l21 104h129l-45 -231h-613z" />
<glyph unicode="&#xbe;" horiz-adv-x="1996" d="M104 666l101 100q8 -10 23.5 -25.5t68.5 -42t113 -26.5q78 0 136 53t58 129q0 55 -46 87t-109 32h-64l-20 74l239 235l53 41v6q-29 -6 -61 -6h-201l-20 -109h-129l45 232h569l-18 -98l-277 -267q76 -16 135.5 -72.5t59.5 -152.5q0 -127 -101.5 -226.5t-248.5 -99.5 q-92 0 -168 34t-107 67zM451 0l968 1446h162l-967 -1446h-163zM1139 223l18 99l520 573h168l-106 -551h125l-23 -121h-127l-43 -223h-151l43 223h-424zM1321 344h266l58 299l26 92h-6q-27 -45 -59 -80l-285 -307v-4z" />
<glyph unicode="&#xbf;" horiz-adv-x="972" d="M-25 -102q0 100 45.5 183t112 139t134 106.5t122.5 111t70 125.5l16 76h193l-17 -88q-16 -78 -58 -144.5t-92 -110.5t-106.5 -90t-102.5 -84t-76 -89t-30 -111q0 -74 53.5 -121t143.5 -47q59 0 121.5 22.5t95.5 43.5l33 22l88 -153q-18 -12 -51 -33t-128.5 -53.5 t-185.5 -32.5q-168 0 -274.5 89t-106.5 239zM504 836l41 200h205l-39 -200h-207z" />
<glyph unicode="&#xc0;" horiz-adv-x="1480" d="M-94 0l31 160h139l712 1286h230l209 -1286h141l-33 -160h-493l30 160h154l-49 321h-512l-176 -321h155l-32 -160h-506zM549 645h407l-77 502l-5 110h-6q-14 -51 -45 -110zM655 1806h222l159 -260h-178z" />
<glyph unicode="&#xc1;" horiz-adv-x="1480" d="M-94 0l31 160h139l712 1286h230l209 -1286h141l-33 -160h-493l30 160h154l-49 321h-512l-176 -321h155l-32 -160h-506zM549 645h407l-77 502l-5 110h-6q-14 -51 -45 -110zM793 1546l262 260h237l-303 -260h-196z" />
<glyph unicode="&#xc2;" horiz-adv-x="1480" d="M-94 0l31 160h139l712 1286h230l209 -1286h141l-33 -160h-493l30 160h154l-49 321h-512l-176 -321h155l-32 -160h-506zM549 645h407l-77 502l-5 110h-6q-14 -51 -45 -110zM625 1546l231 260h215l129 -260h-172l-74 164h-4l-139 -164h-186z" />
<glyph unicode="&#xc3;" horiz-adv-x="1480" d="M-94 0l31 160h139l712 1286h230l209 -1286h141l-33 -160h-493l30 160h154l-49 321h-512l-176 -321h155l-32 -160h-506zM549 645h407l-77 502l-5 110h-6q-14 -51 -45 -110zM588 1548q25 125 87 192.5t152 67.5q47 0 83 -21.5t53.5 -47t41 -47t50.5 -21.5q70 0 98 131h150 q-20 -123 -84 -191.5t-154 -68.5q-47 0 -83 21.5t-53.5 47t-41 47t-49.5 21.5q-74 0 -101 -131h-149z" />
<glyph unicode="&#xc4;" horiz-adv-x="1480" d="M-94 0l31 160h139l712 1286h230l209 -1286h141l-33 -160h-493l30 160h154l-49 321h-512l-176 -321h155l-32 -160h-506zM549 645h407l-77 502l-5 110h-6q-14 -51 -45 -110zM637 1599l41 207h178l-43 -207h-176zM1047 1599l43 207h176l-43 -207h-176z" />
<glyph unicode="&#xc5;" horiz-adv-x="1480" d="M-94 0l31 160h139l712 1286h230l209 -1286h141l-33 -160h-493l30 160h154l-49 321h-512l-176 -321h155l-32 -160h-506zM549 645h407l-77 502l-5 110h-6q-14 -51 -45 -110zM758 1653q0 80 64.5 132t142.5 52q72 0 120 -39t48 -104q0 -78 -64.5 -129.5t-144.5 -51.5 q-70 0 -118 38.5t-48 101.5zM870 1655q0 -55 60 -56q39 0 64.5 27t25.5 68q0 57 -59 57q-35 0 -63 -27.5t-28 -68.5z" />
<glyph unicode="&#xc6;" horiz-adv-x="1941" d="M-88 0l31 160h127l682 1128h-156l33 158h1333l-66 -336h-170l33 168h-485l-92 -465h508l-33 -168h-508l-92 -477h520l33 170h170l-66 -338h-1071l31 160h176l96 487h-371l-292 -487h153l-30 -160h-494zM670 807h307l92 471h-117z" />
<glyph unicode="&#xc7;" horiz-adv-x="1517" d="M117 606q0 354 260 609t612 255q78 0 162 -13t174 -42t141 -88q39 -45 39 -103q0 -19 -4 -38l-37 -178h-186l20 116q2 11 3 22q0 47 -46 81q-55 41 -124.5 54t-143.5 13q-272 0 -465 -204q-194 -204 -194 -472q0 -205 118.5 -334.5t323.5 -129.5q129 0 250 44t137 128 l23 110h188l-33 -168q-18 -102 -121.5 -171.5t-219 -95.5t-232.5 -26h-12l-39 -90q59 -6 98 -43t39 -96q0 -94 -80 -142t-180 -48q-29 0 -57.5 3t-43.5 7l-14 4l23 108q37 -12 88 -12q45 0 81.5 17.5t36.5 58.5q0 59 -108 59h-35l84 185q-242 33 -384 201.5t-142 418.5z" />
<glyph unicode="&#xc8;" horiz-adv-x="1300" d="M-6 0l31 160h180l219 1128h-182l32 158h1047l-66 -336h-178l33 168h-483l-90 -465h512l-35 -168h-510l-94 -477h518l33 174h180l-68 -342h-1079zM588 1806h221l160 -260h-178z" />
<glyph unicode="&#xc9;" horiz-adv-x="1300" d="M-6 0l31 160h180l219 1128h-182l32 158h1047l-66 -336h-178l33 168h-483l-90 -465h512l-35 -168h-510l-94 -477h518l33 174h180l-68 -342h-1079zM725 1546l262 260h238l-303 -260h-197z" />
<glyph unicode="&#xca;" horiz-adv-x="1300" d="M-6 0l31 160h180l219 1128h-182l32 158h1047l-66 -336h-178l33 168h-483l-90 -465h512l-35 -168h-510l-94 -477h518l33 174h180l-68 -342h-1079zM557 1546l231 260h216l129 -260h-172l-74 164h-4l-140 -164h-186z" />
<glyph unicode="&#xcb;" horiz-adv-x="1300" d="M-6 0l31 160h180l219 1128h-182l32 158h1047l-66 -336h-178l33 168h-483l-90 -465h512l-35 -168h-510l-94 -477h518l33 174h180l-68 -342h-1079zM569 1599l41 207h178l-43 -207h-176zM979 1599l43 207h176l-43 -207h-176z" />
<glyph unicode="&#xcc;" horiz-adv-x="786" d="M-8 0l31 160h180l219 1128h-180l30 158h568l-31 -158h-182l-219 -1128h182l-31 -160h-567zM307 1806h221l160 -260h-178z" />
<glyph unicode="&#xcd;" horiz-adv-x="786" d="M-8 0l31 160h180l219 1128h-180l30 158h568l-31 -158h-182l-219 -1128h182l-31 -160h-567zM444 1546l263 260h237l-303 -260h-197z" />
<glyph unicode="&#xce;" horiz-adv-x="786" d="M-8 0l31 160h180l219 1128h-180l30 158h568l-31 -158h-182l-219 -1128h182l-31 -160h-567zM276 1546l232 260h215l129 -260h-172l-74 164h-4l-139 -164h-187z" />
<glyph unicode="&#xcf;" horiz-adv-x="786" d="M-8 0l31 160h180l219 1128h-180l30 158h568l-31 -158h-182l-219 -1128h182l-31 -160h-567zM291 1599l41 207h178l-43 -207h-176zM700 1599l43 207h177l-43 -207h-177z" />
<glyph unicode="&#xd0;" horiz-adv-x="1609" d="M-8 0l31 160h180l94 479h-156l33 168h156l94 481h-182l30 158h625q301 0 471 -147.5t170 -415.5q0 -371 -241.5 -627t-612.5 -256h-692zM410 168h260q287 0 473 200.5t186 497.5q0 199 -117.5 305.5t-326.5 106.5h-258l-92 -471h315l-33 -168h-315z" />
<glyph unicode="&#xd1;" horiz-adv-x="1720" d="M-6 0l31 160h180l219 1128h-182l32 158h377l510 -1047q18 -39 29 -100h6q4 68 14 113l172 876h-184l31 158h571l-31 -158h-182l-252 -1288h-196l-512 1047q-18 41 -29 100h-6q-4 -68 -14 -113l-168 -874h184l-31 -160h-569zM719 1548q25 125 87 192.5t152 67.5 q47 0 83 -21.5t53.5 -47t41 -47t50.5 -21.5q70 0 98 131h150q-20 -123 -84 -191.5t-154 -68.5q-47 0 -83 21.5t-53.5 47t-41 47t-49.5 21.5q-74 0 -101 -131h-149z" />
<glyph unicode="&#xd2;" horiz-adv-x="1687" d="M115 606q0 229 123.5 430t325.5 317.5t427 116.5q281 0 455 -172t174 -442q0 -233 -125 -438t-326.5 -324t-425.5 -119q-279 0 -453.5 177.5t-174.5 453.5zM322 614q0 -201 121.5 -328.5t314.5 -127.5q250 0 451.5 204.5t201.5 483.5q0 195 -122 319.5t-314 124.5 q-252 0 -452.5 -201t-200.5 -475zM762 1806h221l160 -260h-178z" />
<glyph unicode="&#xd3;" horiz-adv-x="1687" d="M115 606q0 229 123.5 430t325.5 317.5t427 116.5q281 0 455 -172t174 -442q0 -233 -125 -438t-326.5 -324t-425.5 -119q-279 0 -453.5 177.5t-174.5 453.5zM322 614q0 -201 121.5 -328.5t314.5 -127.5q250 0 451.5 204.5t201.5 483.5q0 195 -122 319.5t-314 124.5 q-252 0 -452.5 -201t-200.5 -475zM899 1546l262 260h238l-303 -260h-197z" />
<glyph unicode="&#xd4;" horiz-adv-x="1687" d="M115 606q0 229 123.5 430t325.5 317.5t427 116.5q281 0 455 -172t174 -442q0 -233 -125 -438t-326.5 -324t-425.5 -119q-279 0 -453.5 177.5t-174.5 453.5zM322 614q0 -201 121.5 -328.5t314.5 -127.5q250 0 451.5 204.5t201.5 483.5q0 195 -122 319.5t-314 124.5 q-252 0 -452.5 -201t-200.5 -475zM731 1546l232 260h215l129 -260h-172l-74 164h-4l-139 -164h-187z" />
<glyph unicode="&#xd5;" horiz-adv-x="1687" d="M115 606q0 229 123.5 430t325.5 317.5t427 116.5q281 0 455 -172t174 -442q0 -233 -125 -438t-326.5 -324t-425.5 -119q-279 0 -453.5 177.5t-174.5 453.5zM322 614q0 -201 121.5 -328.5t314.5 -127.5q250 0 451.5 204.5t201.5 483.5q0 195 -122 319.5t-314 124.5 q-252 0 -452.5 -201t-200.5 -475zM692 1548q25 125 87.5 192.5t152.5 67.5q47 0 83 -21.5t53 -47t41 -47t50 -21.5q70 0 98 131h150q-20 -123 -83.5 -191.5t-154.5 -68.5q-47 0 -82.5 21.5t-53 47t-41 47t-50.5 21.5q-74 0 -100 -131h-150z" />
<glyph unicode="&#xd6;" horiz-adv-x="1687" d="M115 606q0 229 123.5 430t325.5 317.5t427 116.5q281 0 455 -172t174 -442q0 -233 -125 -438t-326.5 -324t-425.5 -119q-279 0 -453.5 177.5t-174.5 453.5zM322 614q0 -201 121.5 -328.5t314.5 -127.5q250 0 451.5 204.5t201.5 483.5q0 195 -122 319.5t-314 124.5 q-252 0 -452.5 -201t-200.5 -475zM743 1599l41 207h179l-43 -207h-177zM1153 1599l43 207h176l-43 -207h-176z" />
<glyph unicode="&#xd7;" d="M90 113l422 471l-422 471l113 112l418 -467l419 467l113 -112l-424 -471l424 -471l-113 -113l-419 465l-418 -465z" />
<glyph unicode="&#xd8;" horiz-adv-x="1689" d="M115 606q0 229 122.5 430t322.5 317.5t419 116.5q223 0 385 -110l127 139l92 -78l-127 -137q166 -172 166 -428q0 -174 -73.5 -338t-193.5 -281.5t-277.5 -189.5t-319.5 -72q-229 0 -398 119l-131 -145l-96 76l137 149q-155 174 -155 432zM324 614q0 -170 92 -284 l809 882q-106 72 -248 72q-254 0 -453.5 -199t-199.5 -471zM498 242q113 -80 262 -80q250 0 451.5 203.5t201.5 480.5q0 166 -98 284z" />
<glyph unicode="&#xd9;" horiz-adv-x="1640" d="M197 1288l30 158h568l-31 -158h-182l-140 -719q-18 -106 -18 -147q0 -123 81 -193.5t226 -70.5q170 0 285 92q117 98 147 268l152 770h-182l30 158h570l-31 -158h-182l-154 -786q-57 -281 -258 -420q-160 -106 -383 -107q-225 0 -366.5 114t-141.5 310q0 49 21 172 l139 717h-180zM733 1806h221l160 -260h-178z" />
<glyph unicode="&#xda;" horiz-adv-x="1640" d="M197 1288l30 158h568l-31 -158h-182l-140 -719q-18 -106 -18 -147q0 -123 81 -193.5t226 -70.5q170 0 285 92q117 98 147 268l152 770h-182l30 158h570l-31 -158h-182l-154 -786q-57 -281 -258 -420q-160 -106 -383 -107q-225 0 -366.5 114t-141.5 310q0 49 21 172 l139 717h-180zM870 1546l263 260h237l-303 -260h-197z" />
<glyph unicode="&#xdb;" horiz-adv-x="1640" d="M197 1288l30 158h568l-31 -158h-182l-140 -719q-18 -106 -18 -147q0 -123 81 -193.5t226 -70.5q170 0 285 92q117 98 147 268l152 770h-182l30 158h570l-31 -158h-182l-154 -786q-57 -281 -258 -420q-160 -106 -383 -107q-225 0 -366.5 114t-141.5 310q0 49 21 172 l139 717h-180zM702 1546l232 260h215l129 -260h-172l-74 164h-4l-139 -164h-187z" />
<glyph unicode="&#xdc;" horiz-adv-x="1640" d="M197 1288l30 158h568l-31 -158h-182l-140 -719q-18 -106 -18 -147q0 -123 81 -193.5t226 -70.5q170 0 285 92q117 98 147 268l152 770h-182l30 158h570l-31 -158h-182l-154 -786q-57 -281 -258 -420q-160 -106 -383 -107q-225 0 -366.5 114t-141.5 310q0 49 21 172 l139 717h-180zM717 1599l41 207h178l-43 -207h-176zM1126 1599l43 207h177l-43 -207h-177z" />
<glyph unicode="&#xdd;" horiz-adv-x="1335" d="M154 1288l30 158h490l-31 -158h-151l178 -454l18 -62h4q18 31 41 62l359 454h-150l31 158h502l-31 -158h-137l-537 -676l-88 -452h180l-31 -160h-567l31 160h182l88 452l-274 676h-137zM723 1546l262 260h238l-303 -260h-197z" />
<glyph unicode="&#xde;" horiz-adv-x="1339" d="M-6 0l31 160h180l219 1128h-182l32 158h568l-31 -158h-186l-29 -147h334q176 0 278.5 -90t102.5 -244q0 -207 -150.5 -335t-367.5 -128h-351l-36 -184h184l-31 -160h-565zM473 504h299q143 0 236.5 80t93.5 219q0 178 -234 178h-303z" />
<glyph unicode="&#xdf;" horiz-adv-x="1224" d="M59 0l213 1102q33 172 173.5 270t308.5 98q164 0 263 -80.5t99 -207.5q0 -68 -29.5 -125.5t-70.5 -96t-83 -72.5t-72 -70t-30 -73q0 -41 44.5 -89t96.5 -87t96 -104.5t44 -136.5q0 -141 -117.5 -241.5t-271.5 -100.5q-86 0 -162 14t-108 29l-33 16l35 172 q100 -59 254 -59q76 0 139 44t63 126q0 51 -45 103t-98 90t-98 95.5t-45 116.5q0 70 45 132.5t99 102.5t99 92t45 103q0 57 -43 96t-125 39q-98 0 -178 -59t-102 -168l-209 -1071h-197z" />
<glyph unicode="&#xe0;" horiz-adv-x="1140" d="M0 238q0 115 67.5 198.5t178 124.5t221.5 58.5t229 17.5h52q14 70 14 102q0 158 -189 158q-72 0 -149.5 -24.5t-118.5 -49.5l-41 -24l-51 153q20 12 55 30.5t138.5 48.5t201.5 30q156 0 254.5 -73t98.5 -224q0 -63 -47.5 -273t-47.5 -251q0 -90 95 -90l47 4l-29 -154 q-37 -4 -94 -4q-211 0 -213 188h-4q2 0 -14.5 -21.5t-48.5 -52t-74 -61.5t-103 -52.5t-127 -21.5q-129 0 -215 69t-86 194zM199 270q0 -63 41 -102t120 -39q119 0 219.5 106.5t133.5 231.5l10 41h-53q-55 0 -106.5 -3t-121 -17.5t-121 -39t-87 -71t-35.5 -107.5zM387 1446 h221l160 -260h-178z" />
<glyph unicode="&#xe1;" horiz-adv-x="1140" d="M0 238q0 115 67.5 198.5t178 124.5t221.5 58.5t229 17.5h52q14 70 14 102q0 158 -189 158q-72 0 -149.5 -24.5t-118.5 -49.5l-41 -24l-51 153q20 12 55 30.5t138.5 48.5t201.5 30q156 0 254.5 -73t98.5 -224q0 -63 -47.5 -273t-47.5 -251q0 -90 95 -90l47 4l-29 -154 q-37 -4 -94 -4q-211 0 -213 188h-4q2 0 -14.5 -21.5t-48.5 -52t-74 -61.5t-103 -52.5t-127 -21.5q-129 0 -215 69t-86 194zM199 270q0 -63 41 -102t120 -39q119 0 219.5 106.5t133.5 231.5l10 41h-53q-55 0 -106.5 -3t-121 -17.5t-121 -39t-87 -71t-35.5 -107.5zM524 1186 l262 260h238l-303 -260h-197z" />
<glyph unicode="&#xe2;" horiz-adv-x="1140" d="M0 238q0 115 67.5 198.5t178 124.5t221.5 58.5t229 17.5h52q14 70 14 102q0 158 -189 158q-72 0 -149.5 -24.5t-118.5 -49.5l-41 -24l-51 153q20 12 55 30.5t138.5 48.5t201.5 30q156 0 254.5 -73t98.5 -224q0 -63 -47.5 -273t-47.5 -251q0 -90 95 -90l47 4l-29 -154 q-37 -4 -94 -4q-211 0 -213 188h-4q2 0 -14.5 -21.5t-48.5 -52t-74 -61.5t-103 -52.5t-127 -21.5q-129 0 -215 69t-86 194zM199 270q0 -63 41 -102t120 -39q119 0 219.5 106.5t133.5 231.5l10 41h-53q-55 0 -106.5 -3t-121 -17.5t-121 -39t-87 -71t-35.5 -107.5zM356 1186 l232 260h215l129 -260h-172l-74 164h-4l-139 -164h-187z" />
<glyph unicode="&#xe3;" horiz-adv-x="1140" d="M0 238q0 115 67.5 198.5t178 124.5t221.5 58.5t229 17.5h52q14 70 14 102q0 158 -189 158q-72 0 -149.5 -24.5t-118.5 -49.5l-41 -24l-51 153q20 12 55 30.5t138.5 48.5t201.5 30q156 0 254.5 -73t98.5 -224q0 -63 -47.5 -273t-47.5 -251q0 -90 95 -90l47 4l-29 -154 q-37 -4 -94 -4q-211 0 -213 188h-4q2 0 -14.5 -21.5t-48.5 -52t-74 -61.5t-103 -52.5t-127 -21.5q-129 0 -215 69t-86 194zM199 270q0 -63 41 -102t120 -39q119 0 219.5 106.5t133.5 231.5l10 41h-53q-55 0 -106.5 -3t-121 -17.5t-121 -39t-87 -71t-35.5 -107.5zM317 1188 q25 125 87.5 192.5t152.5 67.5q47 0 83 -21.5t53.5 -47t41 -47t49.5 -21.5q70 0 99 131h149q-20 -123 -83.5 -191.5t-153.5 -68.5q-47 0 -83 21.5t-53.5 47t-41 47t-50.5 21.5q-74 0 -100 -131h-150z" />
<glyph unicode="&#xe4;" horiz-adv-x="1140" d="M0 238q0 115 67.5 198.5t178 124.5t221.5 58.5t229 17.5h52q14 70 14 102q0 158 -189 158q-72 0 -149.5 -24.5t-118.5 -49.5l-41 -24l-51 153q20 12 55 30.5t138.5 48.5t201.5 30q156 0 254.5 -73t98.5 -224q0 -63 -47.5 -273t-47.5 -251q0 -90 95 -90l47 4l-29 -154 q-37 -4 -94 -4q-211 0 -213 188h-4q2 0 -14.5 -21.5t-48.5 -52t-74 -61.5t-103 -52.5t-127 -21.5q-129 0 -215 69t-86 194zM199 270q0 -63 41 -102t120 -39q119 0 219.5 106.5t133.5 231.5l10 41h-53q-55 0 -106.5 -3t-121 -17.5t-121 -39t-87 -71t-35.5 -107.5zM369 1239 l41 207h178l-43 -207h-176zM778 1239l43 207h176l-43 -207h-176z" />
<glyph unicode="&#xe5;" horiz-adv-x="1140" d="M0 238q0 115 67.5 198.5t178 124.5t221.5 58.5t229 17.5h52q14 70 14 102q0 158 -189 158q-72 0 -149.5 -24.5t-118.5 -49.5l-41 -24l-51 153q20 12 55 30.5t138.5 48.5t201.5 30q156 0 254.5 -73t98.5 -224q0 -63 -47.5 -273t-47.5 -251q0 -90 95 -90l47 4l-29 -154 q-37 -4 -94 -4q-211 0 -213 188h-4q2 0 -14.5 -21.5t-48.5 -52t-74 -61.5t-103 -52.5t-127 -21.5q-129 0 -215 69t-86 194zM199 270q0 -63 41 -102t120 -39q119 0 219.5 106.5t133.5 231.5l10 41h-53q-55 0 -106.5 -3t-121 -17.5t-121 -39t-87 -71t-35.5 -107.5zM489 1292 q0 80 64.5 132.5t142.5 52.5q72 0 120 -39t48 -105q0 -78 -64.5 -129t-144.5 -51q-70 0 -118 38t-48 101zM602 1294q0 -55 60 -55q39 0 64.5 26.5t25.5 67.5q0 57 -60 58q-35 0 -62.5 -28t-27.5 -69z" />
<glyph unicode="&#xe6;" horiz-adv-x="1767" d="M4 248q0 94 44 165.5t110.5 111.5t158 64.5t170 33t162.5 8.5h94q12 82 13 102q0 164 -197 164q-160 -2 -301 -98l-53 153q20 12 54 30.5t135.5 48.5t195.5 30q246 0 311 -174h4q154 174 385 174q195 0 296.5 -103.5t101.5 -281.5q0 -35 -8.5 -78t-16.5 -70l-6 -26h-746 q-8 -35 -8 -74q0 -131 75 -208t212 -77q80 0 162 30t123 60l43 29l57 -151q-20 -14 -55 -37t-138.5 -61t-201.5 -38q-160 0 -271.5 69t-154.5 187h-4q-12 -27 -40 -62.5t-78 -82.5t-131 -79t-175 -32q-135 0 -228.5 74t-93.5 199zM207 270q0 -59 43 -97t123 -38 q119 0 215 102.5t123 227.5l8 37h-96q-68 0 -128.5 -8.5t-131 -30t-113.5 -70.5t-43 -123zM944 631h541q4 37 4 65q0 100 -56.5 153.5t-144.5 53.5q-117 0 -208 -70.5t-136 -201.5z" />
<glyph unicode="&#xe7;" horiz-adv-x="1142" d="M57 430q0 254 194.5 442.5t465.5 188.5q145 0 266 -61q102 -51 102 -146q0 -18 -4 -37l-22 -119h-176l12 70q2 9 2 18q0 45 -53 71q-63 32 -148 32q-170 0 -303 -133t-133 -312q0 -135 83 -216t228 -81q90 0 179.5 34t132.5 69l43 33l57 -154q-6 -6 -18.5 -16.5 t-54.5 -37t-88 -47t-119.5 -37t-149.5 -16.5h-16l-37 -90q59 -6 98 -43t39 -96q0 -94 -80 -142t-180 -48q-29 0 -57.5 3t-43.5 7l-14 4l21 108q37 -12 88 -12q119 0 118 76q0 59 -106 59h-37l86 187q-174 31 -274.5 148.5t-100.5 293.5z" />
<glyph unicode="&#xe8;" horiz-adv-x="1138" d="M61 418q0 262 174.5 452.5t430.5 190.5q193 0 293 -104.5t100 -278.5l-33 -178h-754q-8 -35 -8 -74q0 -123 78 -201t217 -78q80 0 163 30t126 61l43 28l55 -155q-20 -14 -55 -37t-139.5 -61t-202.5 -38q-223 0 -355.5 123t-132.5 320zM301 627h553q6 35 6 67 q0 102 -54 155.5t-147 53.5q-117 0 -214 -73.5t-144 -202.5zM453 1446h221l160 -260h-179z" />
<glyph unicode="&#xe9;" horiz-adv-x="1138" d="M61 418q0 262 174.5 452.5t430.5 190.5q193 0 293 -104.5t100 -278.5l-33 -178h-754q-8 -35 -8 -74q0 -123 78 -201t217 -78q80 0 163 30t126 61l43 28l55 -155q-20 -14 -55 -37t-139.5 -61t-202.5 -38q-223 0 -355.5 123t-132.5 320zM301 627h553q6 35 6 67 q0 102 -54 155.5t-147 53.5q-117 0 -214 -73.5t-144 -202.5zM590 1186l262 260h238l-304 -260h-196z" />
<glyph unicode="&#xea;" horiz-adv-x="1138" d="M61 418q0 262 174.5 452.5t430.5 190.5q193 0 293 -104.5t100 -278.5l-33 -178h-754q-8 -35 -8 -74q0 -123 78 -201t217 -78q80 0 163 30t126 61l43 28l55 -155q-20 -14 -55 -37t-139.5 -61t-202.5 -38q-223 0 -355.5 123t-132.5 320zM301 627h553q6 35 6 67 q0 102 -54 155.5t-147 53.5q-117 0 -214 -73.5t-144 -202.5zM422 1186l231 260h215l129 -260h-172l-73 164h-4l-140 -164h-186z" />
<glyph unicode="&#xeb;" horiz-adv-x="1138" d="M61 418q0 262 174.5 452.5t430.5 190.5q193 0 293 -104.5t100 -278.5l-33 -178h-754q-8 -35 -8 -74q0 -123 78 -201t217 -78q80 0 163 30t126 61l43 28l55 -155q-20 -14 -55 -37t-139.5 -61t-202.5 -38q-223 0 -355.5 123t-132.5 320zM301 627h553q6 35 6 67 q0 102 -54 155.5t-147 53.5q-117 0 -214 -73.5t-144 -202.5zM434 1239l41 207h178l-43 -207h-176zM844 1239l43 207h176l-43 -207h-176z" />
<glyph unicode="&#xec;" horiz-adv-x="653" d="M104 883l31 153h371l-144 -733q-8 -45 -8 -63q0 -90 95 -90l47 4l-29 -154q-47 -4 -82 -4q-47 0 -82 6t-72.5 24.5t-59 60.5t-21.5 108q0 33 10 90l119 598h-175zM170 1446h221l160 -260h-178z" />
<glyph unicode="&#xed;" horiz-adv-x="653" d="M104 883l31 153h371l-144 -733q-8 -45 -8 -63q0 -90 95 -90l47 4l-29 -154q-47 -4 -82 -4q-47 0 -82 6t-72.5 24.5t-59 60.5t-21.5 108q0 33 10 90l119 598h-175zM307 1186l262 260h238l-303 -260h-197z" />
<glyph unicode="&#xee;" horiz-adv-x="653" d="M104 883l31 153h371l-144 -733q-8 -45 -8 -63q0 -90 95 -90l47 4l-29 -154q-47 -4 -82 -4q-47 0 -82 6t-72.5 24.5t-59 60.5t-21.5 108q0 33 10 90l119 598h-175zM139 1186l232 260h215l129 -260h-172l-74 164h-4l-139 -164h-187z" />
<glyph unicode="&#xef;" horiz-adv-x="653" d="M104 883l31 153h371l-144 -733q-8 -45 -8 -63q0 -90 95 -90l47 4l-29 -154q-47 -4 -82 -4q-47 0 -82 6t-72.5 24.5t-59 60.5t-21.5 108q0 33 10 90l119 598h-175zM180 1239l43 207h176l-43 -207h-176zM535 1239l43 207h176l-41 -207h-178z" />
<glyph unicode="&#xf0;" horiz-adv-x="1218" d="M55 391q0 217 161 390t417 173q158 0 248 -90l4 -4h4q-33 174 -180 291l-398 -160l2 111l291 119q-123 70 -256 104l82 148q229 -61 381 -173l317 127v-110l-229 -92q205 -205 205 -506q0 -115 -36 -238t-105.5 -239.5t-193.5 -191.5t-280 -75q-209 0 -321.5 119 t-112.5 297zM258 395q0 -109 59.5 -178.5t174.5 -69.5q166 0 278.5 141.5t112.5 295.5q0 94 -65.5 152.5t-178.5 58.5q-162 0 -271.5 -119t-109.5 -281z" />
<glyph unicode="&#xf1;" horiz-adv-x="1376" d="M115 883l30 153h236q111 0 111 -88q0 -66 -31 -139h4q37 76 154.5 164t283.5 88q135 0 211 -70.5t76 -202.5q0 -70 -45 -292t-45 -256q0 -53 23.5 -71.5t68.5 -18.5l49 4l-31 -154q-41 -4 -88 -4q-227 0 -227 194q0 49 44 268.5t44 270.5q0 150 -156 150 q-150 0 -269.5 -122t-151.5 -292l-91 -465h-198l164 838q1 6 0 10q0 34 -37 35h-129zM498 1188q25 125 87 192.5t152 67.5q47 0 83 -21.5t53.5 -47t41 -47t50.5 -21.5q70 0 98 131h149q-20 -123 -83.5 -191.5t-153.5 -68.5q-47 0 -83 21.5t-53.5 47t-41 47t-49.5 21.5 q-74 0 -101 -131h-149z" />
<glyph unicode="&#xf2;" horiz-adv-x="1284" d="M59 432q0 262 197 445.5t457 183.5q211 0 344 -126t133 -327q0 -264 -197.5 -448.5t-455.5 -184.5q-211 0 -344.5 127t-133.5 330zM262 440q0 -131 81 -212t210 -81q166 0 300 132.5t134 318.5q0 129 -81 210t-210 81q-168 0 -301 -131.5t-133 -317.5zM492 1446h221 l159 -260h-178z" />
<glyph unicode="&#xf3;" horiz-adv-x="1284" d="M59 432q0 262 197 445.5t457 183.5q211 0 344 -126t133 -327q0 -264 -197.5 -448.5t-455.5 -184.5q-211 0 -344.5 127t-133.5 330zM262 440q0 -131 81 -212t210 -81q166 0 300 132.5t134 318.5q0 129 -81 210t-210 81q-168 0 -301 -131.5t-133 -317.5zM629 1186l262 260 h237l-303 -260h-196z" />
<glyph unicode="&#xf4;" horiz-adv-x="1284" d="M59 432q0 262 197 445.5t457 183.5q211 0 344 -126t133 -327q0 -264 -197.5 -448.5t-455.5 -184.5q-211 0 -344.5 127t-133.5 330zM262 440q0 -131 81 -212t210 -81q166 0 300 132.5t134 318.5q0 129 -81 210t-210 81q-168 0 -301 -131.5t-133 -317.5zM461 1186l231 260 h215l129 -260h-172l-73 164h-5l-139 -164h-186z" />
<glyph unicode="&#xf5;" horiz-adv-x="1284" d="M59 432q0 262 197 445.5t457 183.5q211 0 344 -126t133 -327q0 -264 -197.5 -448.5t-455.5 -184.5q-211 0 -344.5 127t-133.5 330zM262 440q0 -131 81 -212t210 -81q166 0 300 132.5t134 318.5q0 129 -81 210t-210 81q-168 0 -301 -131.5t-133 -317.5zM422 1188 q25 125 87 192.5t153 67.5q47 0 82.5 -21.5t53 -47t41 -47t50.5 -21.5q70 0 98 131h150q-20 -123 -84 -191.5t-154 -68.5q-47 0 -83 21.5t-53.5 47t-41 47t-49.5 21.5q-74 0 -101 -131h-149z" />
<glyph unicode="&#xf6;" horiz-adv-x="1284" d="M59 432q0 262 197 445.5t457 183.5q211 0 344 -126t133 -327q0 -264 -197.5 -448.5t-455.5 -184.5q-211 0 -344.5 127t-133.5 330zM262 440q0 -131 81 -212t210 -81q166 0 300 132.5t134 318.5q0 129 -81 210t-210 81q-168 0 -301 -131.5t-133 -317.5zM473 1239l41 207 h178l-43 -207h-176zM883 1239l43 207h176l-43 -207h-176z" />
<glyph unicode="&#xf7;" d="M102 504v160h1037v-160h-1037zM524 90v186h193v-186h-193zM524 891v186h193v-186h-193z" />
<glyph unicode="&#xf8;" horiz-adv-x="1286" d="M59 432q0 260 195 444.5t444 184.5q166 0 293 -78l111 119l80 -70l-111 -119q119 -129 119 -305q0 -264 -195.5 -448.5t-443.5 -184.5q-156 0 -279 70l-110 -119l-80 70l104 115q-127 133 -127 321zM262 440q0 -104 62 -182l536 584q-70 47 -164 47q-168 0 -301 -131.5 t-133 -317.5zM403 186q72 -39 150 -39q166 0 300 132.5t134 318.5q0 86 -55 164z" />
<glyph unicode="&#xf9;" horiz-adv-x="1363" d="M90 883l31 153h371l-119 -616q-16 -70 -17 -119q0 -145 156 -145q147 0 265 126t147 283l61 318h-172l31 153h370l-143 -733q-6 -33 -6 -63q0 -90 92 -90l49 4l-30 -154q-45 -4 -95 -4q-109 0 -162 56q-46 47 -46 136q0 17 1 35h-4q-63 -98 -171.5 -173t-256.5 -75 q-127 0 -208.5 68t-81.5 205q0 66 14 131l96 504h-172zM483 1446h222l159 -260h-178z" />
<glyph unicode="&#xfa;" horiz-adv-x="1363" d="M90 883l31 153h371l-119 -616q-16 -70 -17 -119q0 -145 156 -145q147 0 265 126t147 283l61 318h-172l31 153h370l-143 -733q-6 -33 -6 -63q0 -90 92 -90l49 4l-30 -154q-45 -4 -95 -4q-109 0 -162 56q-46 47 -46 136q0 17 1 35h-4q-63 -98 -171.5 -173t-256.5 -75 q-127 0 -208.5 68t-81.5 205q0 66 14 131l96 504h-172zM621 1186l262 260h237l-303 -260h-196z" />
<glyph unicode="&#xfb;" horiz-adv-x="1363" d="M90 883l31 153h371l-119 -616q-16 -70 -17 -119q0 -145 156 -145q147 0 265 126t147 283l61 318h-172l31 153h370l-143 -733q-6 -33 -6 -63q0 -90 92 -90l49 4l-30 -154q-45 -4 -95 -4q-109 0 -162 56q-46 47 -46 136q0 17 1 35h-4q-63 -98 -171.5 -173t-256.5 -75 q-127 0 -208.5 68t-81.5 205q0 66 14 131l96 504h-172zM453 1186l231 260h215l129 -260h-172l-74 164h-4l-139 -164h-186z" />
<glyph unicode="&#xfc;" horiz-adv-x="1363" d="M90 883l31 153h371l-119 -616q-16 -70 -17 -119q0 -145 156 -145q147 0 265 126t147 283l61 318h-172l31 153h370l-143 -733q-6 -33 -6 -63q0 -90 92 -90l49 4l-30 -154q-45 -4 -95 -4q-109 0 -162 56q-46 47 -46 136q0 17 1 35h-4q-63 -98 -171.5 -173t-256.5 -75 q-127 0 -208.5 68t-81.5 205q0 66 14 131l96 504h-172zM467 1239l41 207h178l-43 -207h-176zM877 1239l43 207h176l-43 -207h-176z" />
<glyph unicode="&#xfd;" horiz-adv-x="1212" d="M-123 -362l92 143q49 -45 137 -45q129 0 220 143l61 103l-186 901h-131l30 153h465l-28 -153h-138l111 -617q4 -20 4 -42.5t-2 -35.5v-12h6q16 45 43 90l348 617h-133l31 153h465l-31 -153h-127l-616 -1047q-156 -266 -396 -266q-143 0 -225 68zM592 1186l262 260h238 l-304 -260h-196z" />
<glyph unicode="&#xfe;" horiz-adv-x="1257" d="M-20 -410l329 1702h-168l29 154h367l-95 -481l-20 -82h4q55 78 145.5 128t198.5 50q184 0 286.5 -115t102.5 -311q0 -285 -170 -472.5t-393 -187.5q-102 0 -187 46.5t-122 134.5h-4q-4 -43 -15 -97l-92 -469h-196zM344 414q0 -117 58.5 -192t172.5 -75q145 0 263 131.5 t118 342.5q0 125 -62.5 195.5t-170.5 70.5q-156 0 -267.5 -143.5t-111.5 -329.5z" />
<glyph unicode="&#xff;" horiz-adv-x="1212" d="M-123 -362l92 143q49 -45 137 -45q129 0 220 143l61 103l-186 901h-131l30 153h465l-28 -153h-138l111 -617q4 -20 4 -42.5t-2 -35.5v-12h6q16 45 43 90l348 617h-133l31 153h465l-31 -153h-127l-616 -1047q-156 -266 -396 -266q-143 0 -225 68zM436 1239l41 207h178 l-43 -207h-176zM846 1239l43 207h176l-43 -207h-176z" />
<glyph unicode="&#x152;" horiz-adv-x="2002" d="M115 598q0 229 120.5 431t320.5 318.5t423 116.5q63 0 156.5 -9t132.5 -9h755l-65 -336h-170l33 168h-486l-92 -467h508l-33 -166h-508l-92 -477h520l33 170h170l-65 -338h-764q-31 0 -116 -9t-138 -9q-289 0 -466 172t-177 444zM324 598q0 -199 119.5 -321.5 t322.5 -122.5q37 0 74 4t57 8l18 4l213 1108q-59 14 -141 14q-268 0 -465.5 -204.5t-197.5 -489.5z" />
<glyph unicode="&#x153;" horiz-adv-x="2052" d="M59 432q0 262 195 445.5t448 183.5q145 0 252 -65.5t162 -180.5h4q80 115 198 180.5t257 65.5q195 0 295 -104.5t100 -278.5q0 -37 -8 -82t-16 -72l-7 -26h-755q-8 -33 -8 -74q0 -121 78.5 -199t218.5 -78q78 0 160.5 31t125.5 60l43 30l58 -157q-18 -14 -53 -37 t-139.5 -61t-205.5 -38q-154 0 -264.5 67t-161.5 185h-4q-86 -117 -216 -184.5t-269 -67.5q-217 0 -352.5 127t-135.5 330zM262 440q0 -131 81 -212t210 -81q166 0 300 132.5t134 318.5q0 129 -81 210t-210 81q-172 0 -303 -131.5t-131 -317.5zM1214 629h553q6 33 7 65 q0 100 -55.5 154.5t-145.5 54.5q-117 0 -214.5 -72.5t-144.5 -201.5z" />
<glyph unicode="&#x178;" horiz-adv-x="1335" d="M154 1288l30 158h490l-31 -158h-151l178 -454l18 -62h4q18 31 41 62l359 454h-150l31 158h502l-31 -158h-137l-537 -676l-88 -452h180l-31 -160h-567l31 160h182l88 452l-274 676h-137zM567 1599l41 207h178l-43 -207h-176zM977 1599l43 207h176l-43 -207h-176z" />
<glyph unicode="&#x2c6;" horiz-adv-x="1021" d="M76 1546l231 260h215l129 -260h-172l-73 164h-5l-139 -164h-186z" />
<glyph unicode="&#x2dc;" horiz-adv-x="1021" d="M35 1548q25 125 87 192.5t152 67.5q47 0 83 -21.5t53.5 -47t41 -47t50.5 -21.5q70 0 98 131h150q-20 -123 -84 -191.5t-154 -68.5q-47 0 -83 21.5t-53.5 47t-41 47t-49.5 21.5q-74 0 -101 -131h-149z" />
<glyph unicode="&#x2013;" horiz-adv-x="1464" d="M172 504l29 160h1079l-31 -160h-1077z" />
<glyph unicode="&#x2014;" horiz-adv-x="1873" d="M172 504l29 160h1489l-31 -160h-1487z" />
<glyph unicode="&#x2018;" horiz-adv-x="485" d="M178 1022l232 446h153l-182 -446h-203z" />
<glyph unicode="&#x2019;" horiz-adv-x="475" d="M186 1022l183 446h200l-229 -446h-154z" />
<glyph unicode="&#x201a;" horiz-adv-x="528" d="M-76 -231l182 446h203l-231 -446h-154z" />
<glyph unicode="&#x201c;" horiz-adv-x="786" d="M178 1022l232 446h153l-182 -446h-203zM479 1022l232 446h153l-182 -446h-203z" />
<glyph unicode="&#x201d;" horiz-adv-x="776" d="M186 1022l183 446h200l-229 -446h-154zM487 1022l183 446h200l-229 -446h-154z" />
<glyph unicode="&#x201e;" horiz-adv-x="829" d="M-76 -231l182 446h203l-231 -446h-154zM225 -231l183 446h202l-231 -446h-154z" />
<glyph unicode="&#x2022;" horiz-adv-x="858" d="M106 596q0 133 92.5 225t225.5 92t225 -92t92 -225t-92 -225t-225 -92t-225.5 92t-92.5 225z" />
<glyph unicode="&#x2026;" horiz-adv-x="1585" d="M43 0l41 215h209l-43 -215h-207zM573 0l43 215h207l-41 -215h-209zM1106 0l41 215h209l-43 -215h-207z" />
<glyph unicode="&#x2039;" horiz-adv-x="724" d="M82 582l391 417h209l-410 -430l260 -411h-188z" />
<glyph unicode="&#x203a;" horiz-adv-x="731" d="M35 158l409 430l-260 411h189l262 -424l-391 -417h-209z" />
<glyph unicode="&#x20ac;" horiz-adv-x="1236" d="M76 512l24 125h113q6 80 29 188h-109l25 127h127q104 231 313 374.5t455 143.5q59 0 117.5 -8t86.5 -16l29 -8l-80 -168q-76 20 -157 20q-170 0 -314.5 -92t-226.5 -246h577l-51 -127h-581q-25 -98 -31 -188h543l-52 -125h-479q16 -158 119.5 -256t284.5 -98q45 0 93 7 t73 15l24 6l6 -180q-90 -31 -213 -31q-254 0 -419.5 147.5t-184.5 389.5h-141z" />
<glyph unicode="&#x2122;" horiz-adv-x="2119" d="M211 1309v137h780v-137h-313v-764h-154v764h-313zM1055 545l71 901h144l213 -471q16 -37 26 -86h4q12 49 29 86l213 471h143l70 -901h-156l-40 538l2 62h-5l-194 -434h-125l-195 434h-4l2 -62l-43 -538h-155z" />
<glyph unicode="&#xe000;" horiz-adv-x="1035" d="M0 1035h1035v-1035h-1035v1035z" />
<glyph unicode="&#xfb01;" horiz-adv-x="1302" d="M115 883l30 153h172l11 45q25 119 80 201t127.5 118t129 48t113.5 12l90 -6l-34 -162q-25 4 -60 4q-203 0 -248 -211l-10 -49h641l-143 -733q-8 -45 -8 -63q0 -90 94 -90l47 4l-29 -154q-47 -4 -82 -4q-47 0 -81.5 6t-72.5 24.5t-59.5 60.5t-21.5 108q0 33 10 90l119 598 h-443l-172 -883h-198l172 883h-174zM993 1243l41 203h209l-41 -203h-209z" />
<glyph unicode="&#xfb02;" horiz-adv-x="1314" d="M115 883l28 153h172l9 37q82 406 540 406q94 0 188.5 -13.5t141.5 -27.5l47 -13l-215 -1112q-10 -41 -10 -69q0 -51 24.5 -68.5t69.5 -17.5l49 4l-33 -164q-41 -4 -79 -4q-236 0 -236 207q0 37 10 94l197 1008q-59 20 -172 20q-274 0 -322 -248l-8 -39h250l-29 -153h-250 l-172 -883h-198l170 883h-172z" />
<glyph unicode="&#xfb03;" horiz-adv-x="1970" d="M115 883l30 153h170l11 45q18 96 61 169t91 112t108.5 62.5t103.5 29.5t88 6l90 -6l-34 -162q-25 4 -60 4q-203 0 -248 -211l-10 -49h469l8 45q18 96 61.5 169t91.5 112t108.5 62.5t104.5 29.5t89 6l88 -6l-35 -162q-25 4 -59 4q-203 0 -248 -211l-10 -49h641l-144 -733 q-8 -45 -8 -63q0 -90 94 -90l48 4l-29 -154q-47 -4 -82 -4q-47 0 -81 6t-73 24.5t-60.5 60.5t-21.5 108q0 33 11 90l118 598h-442l-172 -883h-199l170 883h-467l-172 -883h-198l170 883h-172zM1661 1243l41 203h209l-41 -203h-209z" />
<glyph unicode="&#xfb04;" horiz-adv-x="1982" d="M115 883l30 153h170l11 45q18 96 61 169t91 112t108.5 62.5t103.5 29.5t88 6l90 -6l-34 -162q-25 4 -60 4q-203 0 -248 -211l-10 -49h469l6 37q82 406 543 406q211 0 375 -54l-215 -1112q-8 -49 -8 -69q0 -51 23.5 -68.5t68.5 -17.5l49 4l-33 -164q-39 -4 -80 -4 q-236 0 -235 207q0 37 10 94l197 1008q-59 20 -173 20q-274 0 -321 -248l-8 -39h250l-29 -153h-250l-172 -883h-199l170 883h-467l-172 -883h-198l170 883h-172z" />
</font>
</defs>
</svg>
